HIERARCHY
ROOT Hips
{
	OFFSET 0.000000 0.000000 0.000000
	CHANNELS 6 Xposition Yposition Zposition Xrotation Yrotation Zrotation
	JOINT LeftUpLeg_virtual
	{
		OFFSET 0.000000 0.000000 0.000000
		CHANNELS 3 Xrotation Yrotation Zrotation
		JOINT LeftUpLeg
		{
			OFFSET 15.427100 -6.655098 0.678600
			CHANNELS 3 Xrotation Yrotation Zrotation
			JOINT LeftLeg
			{
				OFFSET 4.081073 -39.591068 13.024000
				CHANNELS 3 Xrotation Yrotation Zrotation
				JOINT LeftFoot
				{
					OFFSET -4.081074 -37.707932 -15.979700
					CHANNELS 3 Xrotation Yrotation Zrotation
					JOINT LeftToeBase
					{
						OFFSET 5.346399 -15.068900 20.645000
						CHANNELS 3 Xrotation Yrotation Zrotation
						JOINT LeftToe_End
						{
							OFFSET 2.754700 0.931300 11.300900
							CHANNELS 3 Xrotation Yrotation Zrotation
							End Site
							{
								OFFSET 0 0 0
							}
						}
					}
				}
			}
		}
	}
	JOINT RightUpLeg_virtual
	{
		OFFSET 0.000000 0.000000 0.000000
		CHANNELS 3 Xrotation Yrotation Zrotation
		JOINT RightUpLeg
		{
			OFFSET -15.569500 -6.655098 0.678600
			CHANNELS 3 Xrotation Yrotation Zrotation
			JOINT RightLeg
			{
				OFFSET -4.081825 -39.591045 13.023800
				CHANNELS 3 Xrotation Yrotation Zrotation
				JOINT RightFoot
				{
					OFFSET 4.081824 -37.707954 -15.979600
					CHANNELS 3 Xrotation Yrotation Zrotation
					JOINT RightToeBase
					{
						OFFSET -5.346400 -15.068900 20.645000
						CHANNELS 3 Xrotation Yrotation Zrotation
						JOINT RightToe_End
						{
							OFFSET -2.754700 0.931300 11.300900
							CHANNELS 3 Xrotation Yrotation Zrotation
							End Site
							{
								OFFSET 0 0 0
							}
						}
					}
				}
			}
		}
	}
	JOINT Spine_virtual
	{
		OFFSET 0.000000 0.000000 0.000000
		CHANNELS 3 Xrotation Yrotation Zrotation
		JOINT Spine
		{
			OFFSET -0.279200 12.230698 -2.892100
			CHANNELS 3 Xrotation Yrotation Zrotation
			JOINT Spine1
			{
				OFFSET -0.232667 10.192268 -1.242267
				CHANNELS 3 Xrotation Yrotation Zrotation
				JOINT Spine1_split
				{
					OFFSET -0.232667 10.192268 -1.242267
					CHANNELS 3 Xrotation Yrotation Zrotation
					JOINT Spine2
					{
						OFFSET -0.232667 10.192268 -1.242267
						CHANNELS 3 Xrotation Yrotation Zrotation
						JOINT Neck_virtual
						{
							OFFSET 0.000000 0.000000 0.000000
							CHANNELS 3 Xrotation Yrotation Zrotation
							JOINT Neck
							{
								OFFSET -0.418800 17.814194 8.416900
								CHANNELS 3 Xrotation Yrotation Zrotation
								JOINT Head
								{
									OFFSET 0.000000 7.031097 3.806800
									CHANNELS 3 Xrotation Yrotation Zrotation
									JOINT HeadTop_End
									{
										OFFSET 0.000000 24.646606 12.978600
										CHANNELS 3 Xrotation Yrotation Zrotation
										End Site
										{
											OFFSET 0 0 0
										}
									}
								}
							}
						}
						JOINT LeftShoulder_virtual
						{
							OFFSET 0.000000 0.000000 0.000000
							CHANNELS 3 Xrotation Yrotation Zrotation
							JOINT LeftShoulder
							{
								OFFSET 8.476499 7.247704 -3.868750
								CHANNELS 3 Xrotation Yrotation Zrotation
								JOINT LeftShoulder_split
								{
									OFFSET 8.476499 7.247704 -3.868750
									CHANNELS 3 Xrotation Yrotation Zrotation
									JOINT LeftArm
									{
										OFFSET 9.308998 -2.777710 0.208600
										CHANNELS 3 Xrotation Yrotation Zrotation
										JOINT LeftForeArm
										{
											OFFSET 29.972298 0.000000 0.000000
											CHANNELS 3 Xrotation Yrotation Zrotation
											JOINT LeftHand
											{
												OFFSET 26.026505 0.000000 0.000000
												CHANNELS 3 Xrotation Yrotation Zrotation
												End Site
												{
													OFFSET 0 0 0
												}
											}
										}
									}
								}
							}
						}
						JOINT RightShoulder_virtual
						{
							OFFSET 0.000000 0.000000 0.000000
							CHANNELS 3 Xrotation Yrotation Zrotation
							JOINT RightShoulder
							{
								OFFSET -7.570500 7.247704 -3.868750
								CHANNELS 3 Xrotation Yrotation Zrotation
								JOINT RightShoulder_split
								{
									OFFSET -7.570500 7.247704 -3.868750
									CHANNELS 3 Xrotation Yrotation Zrotation
									JOINT RightArm
									{
										OFFSET -9.308998 -2.777710 0.208500
										CHANNELS 3 Xrotation Yrotation Zrotation
										JOINT RightForeArm
										{
											OFFSET -29.972300 0.000000 0.000000
											CHANNELS 3 Xrotation Yrotation Zrotation
											JOINT RightHand
											{
												OFFSET -26.026505 0.000000 0.000000
												CHANNELS 3 Xrotation Yrotation Zrotation
												End Site
												{
													OFFSET 0 0 0
												}
											}
										}
									}
								}
							}
						}
					}
				}
			}
		}
	}
}
MOTION
Frames: 10
Frame Time: 0.03333333
2.953046 78.374832 26.281879 0.000000 0.000000 0.000000 5.422765 -51.794844 5.611013 5.472275 12.874066 -9.065592 38.742486 -8.157938 -8.267994 -38.080852 -10.445430 17.311797 -3.931859 -5.770348 1.726652 0.000000 0.000000 0.000000 5.422765 -51.794844 5.611013 -59.946904 -3.121442 3.474574 19.042887 3.760495 1.728804 4.122867 8.701903 13.778741 1.914876 -4.655938 7.674909 0.000000 0.000000 0.000000 5.422765 -51.794844 5.611013 11.730503 -6.731463 6.546310 6.897506 -6.951604 1.878609 0.000000 0.000000 0.000000 0.000000 0.000000 0.000000 -4.209822 -6.549579 2.113403 6.754099 41.480439 -10.680608 1.712228 25.842639 -7.475038 0.000000 0.000000 0.000000 -4.209822 -6.549579 2.113403 1.270531 -5.316223 -0.766511 0.000000 0.000000 0.000000 -4.829682 -2.597530 -36.315091 -0.000762 -23.380834 -2.655190 0.000000 0.000000 0.000000 -4.209822 -6.549579 2.113403 10.009436 -5.246999 3.894586 0.000000 0.000000 0.000000 5.281019 -0.456748 74.450346 -9.017184 16.459788 6.074798 0.000000 0.000000 0.000000 
4.635444 79.435417 24.465157 0.000000 0.000000 0.000000 5.938562 -53.419500 6.665774 5.782858 11.736072 -10.137758 34.619691 -7.097676 -7.889733 -41.284792 -8.397841 13.614826 4.883038 -11.145199 3.365286 0.000000 0.000000 0.000000 5.938562 -53.419500 6.665774 -59.943939 -1.601013 2.896258 22.038997 4.383151 0.025358 9.629991 9.065652 14.793715 3.856333 -3.668723 7.269366 0.000000 0.000000 0.000000 5.938562 -53.419500 6.665774 11.556872 -6.410536 6.077002 6.628104 -6.390918 1.563486 0.000000 0.000000 0.000000 0.000000 0.000000 0.000000 -4.464399 -5.939061 1.913257 4.365878 41.687452 -10.666471 3.702048 25.152711 -8.050840 0.000000 0.000000 0.000000 -4.464399 -5.939061 1.913257 1.126232 -5.641835 -0.722995 0.000000 0.000000 0.000000 -9.346831 -1.665549 -36.045319 -0.000761 -28.424339 -2.537049 0.000000 0.000000 0.000000 -4.464399 -5.939061 1.913257 10.045356 -5.469086 3.772899 0.000000 0.000000 0.000000 4.495823 3.336462 70.727633 -5.588871 20.793980 8.779304 0.000000 0.000000 0.000000 
5.899729 80.611267 22.569477 0.000000 0.000000 0.000000 4.814361 -53.918633 5.531196 4.812852 11.059482 -10.144745 34.302900 -5.838269 -6.180866 -42.310946 -8.326845 12.129551 9.534404 -13.452071 5.167999 0.000000 0.000000 0.000000 4.814361 -53.918633 5.531196 -57.719108 0.273259 1.396920 24.831827 4.579123 -1.271590 13.444839 8.001194 16.178174 6.015226 -2.428043 6.624638 0.000000 0.000000 0.000000 4.814361 -53.918633 5.531196 11.626785 -6.160772 5.782574 6.834369 -6.010248 1.594519 0.000000 0.000000 0.000000 0.000000 0.000000 0.000000 -4.251029 -5.571436 2.017427 3.703592 41.886944 -11.064473 4.937528 24.429749 -7.830160 0.000000 0.000000 0.000000 -4.251029 -5.571436 2.017427 0.973886 -5.732992 -0.462230 0.000000 0.000000 0.000000 -11.896129 -1.914696 -36.295789 -0.001017 -33.209018 -3.280010 0.000000 0.000000 0.000000 -4.251029 -5.571436 2.017427 10.043575 -5.196834 4.149173 0.000000 0.000000 0.000000 3.853506 6.445273 65.962525 -1.857266 25.215402 11.159691 0.000000 0.000000 0.000000 
6.806578 81.697372 20.862909 0.000000 0.000000 0.000000 4.530870 -54.720040 5.197185 2.523725 11.088378 -9.119914 35.018411 -5.788299 -5.682752 -40.017412 -7.186360 9.698840 9.239187 -14.203535 6.995135 0.000000 0.000000 0.000000 4.530870 -54.720040 5.197185 -55.677079 0.326210 -1.553988 28.205275 5.180366 -1.168895 14.977056 6.552306 18.123487 4.508768 -2.478164 6.409595 0.000000 0.000000 0.000000 4.530870 -54.720040 5.197185 11.361982 -5.766774 5.459721 6.364883 -5.355551 1.539473 0.000000 0.000000 0.000000 0.000000 0.000000 0.000000 -4.708431 -4.918502 2.090040 6.955230 41.759227 -11.922309 5.203318 23.619166 -8.061735 0.000000 0.000000 0.000000 -4.708431 -4.918502 2.090040 0.810784 -5.278862 -1.330835 0.000000 0.000000 0.000000 -12.283249 -3.393818 -36.663772 -0.001115 -36.423241 -3.701656 0.000000 0.000000 0.000000 -4.708431 -4.918502 2.090040 9.944004 -4.639682 4.134234 0.000000 0.000000 0.000000 4.256465 7.934854 61.439942 1.512771 29.803588 11.908855 0.000000 0.000000 0.000000 
7.442327 82.740417 19.279139 0.000000 0.000000 0.000000 4.908801 -56.847545 6.240043 1.342152 10.655970 -9.345528 34.179913 -4.464469 -5.528418 -38.206979 -5.525167 7.956177 8.945611 -14.021435 7.522768 0.000000 0.000000 0.000000 4.908801 -56.847545 6.240043 -54.864522 -0.156736 -4.075075 32.966444 4.909536 -1.334837 15.051618 5.992301 16.272386 5.121165 -1.165717 5.369242 0.000000 0.000000 0.000000 4.908801 -56.847545 6.240043 11.005856 -5.218025 4.876782 5.715300 -4.378874 0.965829 0.000000 0.000000 0.000000 0.000000 0.000000 0.000000 -5.337935 -3.850139 1.715828 11.381829 41.444727 -13.189656 4.144533 22.789476 -7.860241 0.000000 0.000000 0.000000 -5.337935 -3.850139 1.715828 0.649374 -3.922830 -2.267242 0.000000 0.000000 0.000000 -11.670485 -4.528048 -37.327254 -0.001242 -40.012614 -3.679635 0.000000 0.000000 0.000000 -5.337935 -3.850139 1.715828 9.800544 -3.899938 4.044693 0.000000 0.000000 0.000000 5.233428 8.267164 57.714538 3.851493 34.591138 11.581802 0.000000 0.000000 0.000000 
7.975065 83.702774 17.461533 0.000000 0.000000 0.000000 5.611592 -58.723644 7.348860 -0.263195 9.719725 -9.541379 33.755078 -2.680023 -4.636285 -36.813961 -3.570342 6.108567 8.652245 -13.907699 7.579997 0.000000 0.000000 0.000000 5.611592 -58.723644 7.348860 -53.655801 -0.647371 -6.738146 36.512395 3.972226 -1.645846 14.529925 4.769435 14.319287 5.377837 -0.573087 4.893475 0.000000 0.000000 0.000000 5.611592 -58.723644 7.348860 10.793439 -4.720797 4.374758 5.337466 -3.544729 0.429944 0.000000 0.000000 0.000000 0.000000 0.000000 0.000000 -5.700340 -2.928856 1.350661 13.206365 41.255456 -13.120940 4.088410 22.422268 -8.543177 0.000000 0.000000 0.000000 -5.700340 -2.928856 1.350661 0.544371 -2.362114 -2.400625 0.000000 0.000000 0.000000 -10.982228 -4.488756 -38.675557 -0.001346 -44.255459 -3.886742 0.000000 0.000000 0.000000 -5.700340 -2.928856 1.350661 9.677421 -3.272184 3.969030 0.000000 0.000000 0.000000 5.449419 8.280947 55.071952 4.673720 38.195350 10.767652 0.000000 0.000000 0.000000 
8.278884 84.763252 15.438309 0.000000 0.000000 0.000000 5.765445 -59.622524 7.480808 -1.600732 9.172241 -8.937407 33.331463 -1.469126 -3.381405 -35.390752 -2.093575 4.271894 8.397229 -14.048290 7.274408 0.000000 0.000000 0.000000 5.765445 -59.622524 7.480808 -51.464352 -0.917277 -9.308331 38.871310 3.764019 -2.013594 13.357438 3.925775 12.455273 4.201427 -0.605617 4.004849 0.000000 0.000000 0.000000 5.765445 -59.622524 7.480808 10.718137 -4.358059 3.985804 5.227475 -2.956952 0.157314 0.000000 0.000000 0.000000 0.000000 0.000000 0.000000 -5.801917 -2.299837 1.196087 13.626093 41.160038 -12.393161 4.271753 22.294047 -8.879062 0.000000 0.000000 0.000000 -5.801917 -2.299837 1.196087 0.469063 -1.001012 -2.712706 0.000000 0.000000 0.000000 -10.071845 -4.127490 -39.816519 -0.001428 -47.928561 -3.876565 0.000000 0.000000 0.000000 -5.801917 -2.299837 1.196087 9.564405 -2.699108 3.890785 0.000000 0.000000 0.000000 5.053588 8.451447 53.039714 5.188195 40.118612 9.540857 0.000000 0.000000 0.000000 
8.440601 85.779099 13.308083 0.000000 0.000000 0.000000 5.575440 -60.013573 6.800103 -2.916319 8.983487 -7.591666 33.204343 -0.802140 -1.927514 -34.040888 -1.070592 2.310278 8.195429 -14.195355 6.985183 0.000000 0.000000 0.000000 5.575440 -60.013573 6.800103 -48.412797 -0.832071 -11.246716 39.274674 4.051264 -2.527987 13.679663 3.666080 12.663681 -0.329338 -0.065134 -1.795756 0.000000 0.000000 0.000000 5.575440 -60.013573 6.800103 10.682873 -4.056579 3.733929 5.180862 -2.501721 0.003992 0.000000 0.000000 0.000000 0.000000 0.000000 0.000000 -5.843512 -1.823675 1.132975 13.830175 40.999682 -11.157825 4.457561 22.324540 -9.104251 0.000000 0.000000 0.000000 -5.843512 -1.823675 1.132975 0.439035 -0.164998 -3.271756 0.000000 0.000000 0.000000 -8.755542 -3.507474 -40.597856 -0.001500 -50.720906 -3.906087 0.000000 0.000000 0.000000 -5.843512 -1.823675 1.132975 9.462582 -2.198544 3.779474 0.000000 0.000000 0.000000 4.548873 8.614292 51.384066 5.673116 41.136617 8.112754 0.000000 0.000000 0.000000 
8.540203 86.855988 11.056358 0.000000 0.000000 0.000000 5.805299 -60.113294 6.383677 -4.272476 9.076776 -5.862108 32.660588 -0.468503 -0.829087 -32.540746 -0.564256 0.875619 8.037129 -14.457975 6.246532 0.000000 0.000000 0.000000 5.805299 -60.113294 6.383677 -45.092643 -0.428544 -12.643723 38.261798 4.518621 -3.196542 13.333587 3.582132 13.154411 -3.433672 0.258081 -0.976044 0.000000 0.000000 0.000000 5.805299 -60.113294 6.383677 10.580573 -3.779878 3.598730 4.985043 -2.114090 -0.103101 0.000000 0.000000 0.000000 0.000000 0.000000 0.000000 -6.035887 -1.422726 1.102191 14.487695 40.558756 -10.461017 3.812335 22.145066 -9.101168 0.000000 0.000000 0.000000 -6.035887 -1.422726 1.102191 0.434643 0.541674 -4.108525 0.000000 0.000000 0.000000 -6.838902 -3.138244 -41.480162 -0.001647 -52.897346 -3.912126 0.000000 0.000000 0.000000 -6.035887 -1.422726 1.102191 9.373621 -1.789952 3.605651 0.000000 0.000000 0.000000 4.438976 8.499638 50.025320 6.225737 42.286630 6.544569 0.000000 0.000000 0.000000 
8.600215 87.787498 8.812988 0.000000 0.000000 0.000000 5.578885 -60.216088 5.768718 -5.196710 9.301214 -4.158544 31.935861 -0.375108 -0.142540 -31.052697 -0.396761 -0.141156 7.824669 -14.684683 5.289533 0.000000 0.000000 0.000000 5.578885 -60.216088 5.768718 -41.380267 0.001132 -14.280450 36.323557 4.902936 -4.076925 12.036348 3.501229 14.606957 -3.786263 0.055055 1.010870 0.000000 0.000000 0.000000 5.578885 -60.216088 5.768718 10.560394 -3.500647 3.499384 4.943364 -1.761813 -0.419437 0.000000 0.000000 0.000000 0.000000 0.000000 0.000000 -6.072027 -1.016360 0.859306 14.362500 39.829360 -9.694543 3.587031 22.240423 -8.791814 0.000000 0.000000 0.000000 -6.072027 -1.016360 0.859306 0.424169 1.149302 -4.498839 0.000000 0.000000 0.000000 -4.805457 -2.944952 -42.675049 -0.001556 -54.348498 -3.576997 0.000000 0.000000 0.000000 -6.072027 -1.016360 0.859306 9.305247 -1.534622 3.306525 0.000000 0.000000 0.000000 4.580938 8.153070 49.233574 6.953531 44.023817 4.658716 0.000000 0.000000 0.000000 
